<?xml version="1.0" encoding="UTF-8" standalone="no"?>
<!-- Created with Inkscape (http://www.inkscape.org/) -->

<svg
   version="1.1"
   id="svg1091"
   width="384"
   height="383.72711"
   viewBox="0 0 384 383.72711"
   sodipodi:docname="GoalToInkscapeEditted.svg"
   inkscape:version="1.1.1 (3bf5ae0d25, 2021-09-20)"
   xmlns:inkscape="http://www.inkscape.org/namespaces/inkscape"
   xmlns:sodipodi="http://sodipodi.sourceforge.net/DTD/sodipodi-0.dtd"
   xmlns="http://www.w3.org/2000/svg"
   xmlns:svg="http://www.w3.org/2000/svg">
  <defs
     id="defs1095" />
  <sodipodi:namedview
     id="namedview1093"
     pagecolor="#ffffff"
     bordercolor="#666666"
     borderopacity="1.0"
     inkscape:pageshadow="2"
     inkscape:pageopacity="0.0"
     inkscape:pagecheckerboard="0"
     showgrid="false"
     inkscape:snap-global="false"
     inkscape:zoom="0.43080357"
     inkscape:cx="435.23316"
     inkscape:cy="-11.606218"
     inkscape:window-width="1920"
     inkscape:window-height="1094"
     inkscape:window-x="-11"
     inkscape:window-y="-11"
     inkscape:window-maximized="1"
     inkscape:current-layer="g1097"
     fit-margin-top="0"
     fit-margin-left="0"
     fit-margin-right="0"
     fit-margin-bottom="0" />
  <g
     inkscape:groupmode="layer"
     inkscape:label="Image"
     id="g1097"
     transform="translate(410.33496,63.381689)">
    <g
       id="g4994"
       transform="translate(-442.7772,-109.67876)">
      <path
         style="fill:#f2d579"
         d="m 218.26405,362.01776 c -5.32876,-34.08553 -5.79757,-36.27934 -8.2361,-38.54047 -1.42214,-1.31869 -2.58571,-3.49315 -2.58571,-4.83214 0,-2.2287 0.27477,-2.37323 3.25,-1.70953 4.26438,0.95128 23.31285,0.93322 27.63104,-0.0262 l 3.38104,-0.75121 -0.54719,3.3719 c -0.30095,1.85455 -1.60116,4.44259 -2.88936,5.75121 -2.10385,2.1372 -2.89668,5.96618 -7.7915,37.62931 -2.99712,19.3875 -5.69963,35.25 -6.00557,35.25 -0.30594,0 -3.09893,-16.26429 -6.20665,-36.14286 z m -70.53144,-48.85714 c 12.47836,-17.24929 13.95975,-19.73064 12.90483,-21.61568 -0.80492,-1.43831 -0.37078,-2.66498 2.07114,-5.85204 4.64389,-6.06094 4.72472,-6.1131 3.55206,-2.29222 -1.49966,4.88632 -0.44471,8.12516 4.33576,13.31136 l 4.08639,4.43321 -2.37027,1.98846 c -1.63799,1.37414 -3.22006,1.81535 -5.12085,1.42811 -2.60517,-0.53074 -7.32678,2.38035 -22.70533,13.99886 -0.80075,0.60497 0.66007,-1.82506 3.24627,-5.40006 z m 149.70963,0.35747 c -11.58819,-8.59086 -13.06569,-9.39268 -15.20148,-8.24964 -1.42824,0.76437 -2.53325,0.46188 -4.77317,-1.3066 -1.60308,-1.26568 -2.93959,-2.53923 -2.97002,-2.83012 -0.0304,-0.29089 2.84737,-3.40578 6.39511,-6.92199 l 6.45044,-6.3931 2.03034,2.42199 c 1.42549,1.70046 1.86063,3.25401 1.46068,5.21488 -0.46561,2.28279 0.4135,4.10924 4.81319,10 6.59075,8.82438 10.03487,13.72056 9.613,13.6659 -0.17495,-0.0227 -3.69309,-2.54326 -7.81809,-5.60132 z m -155.75,-58.64111 c -4.56419,-0.62551 -7.25,-1.45256 -7.25,-2.23253 0,-0.68142 -0.59481,-1.73259 -1.3218,-2.33594 -0.727,-0.60335 -16.477,-3.45743 -35.000009,-6.3424 -18.523007,-2.88496 -33.678195,-5.50283 -33.678195,-5.81749 0,-0.31465 6.6375,-1.59431 14.75,-2.84368 41.969894,-6.46361 41.583804,-6.38721 43.878334,-8.68174 1.21197,-1.21197 3.3664,-2.49542 4.78762,-2.85213 2.3797,-0.59726 2.58685,-0.39003 2.61949,2.6205 0.0195,1.79798 0.58198,4.19494 1.25,5.32658 1.7527,2.96916 13.56981,18.45407 16.55433,21.69247 1.39393,1.5125 2.11272,2.68474 1.59732,2.60497 -0.5154,-0.0798 -4.19959,-0.59215 -8.18709,-1.13861 z m 161.56287,-3.46636 c 0.89648,-4.89252 0.88381,-21.6727 -0.0201,-26.6239 l -0.70723,-3.87391 3.54794,0.57576 c 1.95137,0.31666 4.51962,1.6156 5.70723,2.88653 1.94552,2.08201 5.64917,2.85127 37.4093,7.77005 19.3875,3.0026 35.25,5.70902 35.25,6.01428 0,0.30525 -16.21893,3.08511 -36.04207,6.17747 -34.06873,5.31463 -36.17404,5.76486 -38.45225,8.2231 -1.34983,1.45648 -3.5034,2.60062 -4.89506,2.60062 -2.32691,0 -2.4412,-0.2384 -1.79775,-3.75 z M 159.78967,186.34533 c -0.70142,-1.12315 -0.79606,-2.41857 -0.24821,-3.39752 0.91012,-1.6263 -1.21535,-5.191 -11.79824,-19.78719 -2.59203,-3.575 -4.05763,-6.00503 -3.25688,-5.40006 17.34723,13.10585 22.78455,16.10436 24.416,13.46463 0.31797,-0.51449 1.73431,0.22075 3.14744,1.63388 l 2.56931,2.56931 -6.30954,6.36612 c -3.47024,3.50137 -6.55179,6.36612 -6.84787,6.36612 -0.29609,0 -1.0485,-0.81688 -1.67201,-1.81529 z m 120.66517,-4.672 c -6.15088,-6.20604 -6.34472,-6.54952 -4.47111,-7.92273 1.07892,-0.79078 3.09474,-1.20922 4.48848,-0.93172 1.88774,0.37586 4.04544,-0.60141 8.5,-3.84983 3.28352,-2.39445 8.43758,-6.1434 11.45347,-8.33099 l 5.48345,-3.97744 -4.74033,6.5 c -10.57653,14.50267 -12.72988,18.12528 -11.80324,19.85672 0.78891,1.4741 -0.68243,5.14328 -2.06245,5.14328 -0.23026,0 -3.31198,-2.91928 -6.84827,-6.48729 z m -72.83781,-24.77285 c 0.21821,-2.18606 0.95342,-3.41225 2.26038,-3.76985 1.06534,-0.2915 2.22788,-1.6415 2.58343,-3 0.35555,-1.35851 3.06828,-18.10751 6.0283,-37.22001 2.96001,-19.112498 5.63598,-34.749998 5.94659,-34.749998 0.31061,0 3.10706,16.270302 6.21433,36.156228 5.31737,34.03013 5.80078,36.29642 8.22088,38.54047 1.41422,1.31133 2.5713,3.47978 2.5713,4.81877 0,2.2287 -0.27477,2.37323 -3.25,1.70953 -4.23987,-0.94582 -23.304,-0.93554 -27.5743,0.0149 -3.27477,0.72884 -3.31949,0.69158 -3.00091,-2.5 z"
         id="path5000" />
      <path
         style="fill:#71c0c4"
         d="m 178.19224,328.58865 c -3.87722,-2.10343 -3.43809,-2.82933 0.5,-0.82653 3.76952,1.91707 4.43665,2.41393 3.16667,2.35846 -0.50417,-0.022 -2.15417,-0.71139 -3.66667,-1.53193 z m 88.33333,1.19915 c 1.02905,-0.92077 6.91667,-3.62641 6.91667,-3.17854 0,0.57598 -5.54382,3.55136 -6.61701,3.55136 -0.39398,0 -0.52882,-0.16777 -0.29966,-0.37282 z m -58.08333,-21.1782 c -13.68187,-2.93008 -35,-16.2336 -35,-21.84165 0,-5.93376 5.30262,-6.01288 12.45664,-0.18585 18.4019,14.98855 44.60386,17.7109 66.54259,6.91369 9.38731,-4.62 21.93206,-16.80498 26.78951,-26.02122 9.35974,-17.75865 9.5253,-38.79945 0.45097,-57.31395 -5.12706,-10.46084 -16.82721,-22.1341 -27.37462,-27.31171 -18.85428,-9.25536 -39.36959,-8.70749 -58.59362,1.56477 -8.03301,4.2924 -19.92636,16.56877 -24.12049,24.89727 -4.03168,8.0059 -3.69558,10.3385 1.63312,11.33426 8.66307,1.61885 8.29367,4.51066 -2.34607,18.36589 -9.44611,12.30086 -11.14974,13.21762 -15.60908,8.39952 -4.24225,-4.58354 -15.82895,-20.47614 -15.82895,-21.71137 0,-3.24976 2.81564,-4.86439 9.49801,-5.44666 4.58922,-0.39988 7.03334,-1.07871 7.53215,-2.09197 0.40613,-0.825 2.88079,-6 5.49924,-11.5 4.16914,-8.7572 5.89237,-11.12495 13.86571,-19.05173 14.23422,-14.15113 27.80708,-20.24076 47.10489,-21.13419 21.41698,-0.99156 39.74679,6.02795 54.64572,20.92688 27.81037,27.81037 27.81037,73.70771 0,101.51808 -9.56512,9.56512 -23.14517,17.07549 -35.67441,19.72952 -8.62021,1.82599 -22.84361,1.8081 -31.47131,-0.0396 z m -74.54806,-24.54191 c -0.87968,-1.70111 -1.42188,-3.27046 -1.2049,-3.48744 0.21698,-0.21698 1.14288,1.17483 2.05756,3.09293 2.05658,4.3127 1.34401,4.64239 -0.85266,0.39451 z m 180.24346,-0.39451 c 0.91468,-1.9181 1.84058,-3.30991 2.05756,-3.09293 0.45746,0.45746 -2.5782,6.58037 -3.26246,6.58037 -0.25198,0 0.29023,-1.56935 1.2049,-3.48744 z m -129.59328,-7.0982 c -1.86884,-1.3279 -2.90643,-2.41436 -2.30577,-2.41436 0.60067,0 2.35472,1.11078 3.89789,2.4684 3.53397,3.10905 2.82566,3.08501 -1.59212,-0.054 z m -23.78819,-19.43093 c 1.54767,-0.46456 3.36887,-1.21338 4.04713,-1.66404 0.67826,-0.45067 0.37464,-0.0319 -0.67471,0.93061 -1.04936,0.9625 -2.87057,1.71132 -4.04713,1.66405 -1.73483,-0.0697 -1.60728,-0.24563 0.67471,-0.93062 z m 53.18607,-3.98343 c 2.14824,-2.2 4.1309,-4 4.4059,-4 0.275,0 -1.25766,1.8 -3.4059,4 -2.14824,2.2 -4.1309,4 -4.4059,4 -0.275,0 1.25766,-1.8 3.4059,-4 z m -5.86986,-5 c 2.27158,-2.475 4.37356,-5.175 4.67106,-6 0.47069,-1.30528 0.55115,-1.29985 0.61985,0.0418 0.0434,0.84799 -2.05855,3.54799 -4.67105,6 l -4.75,4.4582 z m 17.36986,-6.29427 c 1.63843,-0.82891 2.5,-2.10601 2.5,-3.70573 0,-1.59972 -0.86157,-2.87682 -2.5,-3.70573 -1.56094,-0.7897 -1.90088,-1.27032 -0.90499,-1.27953 1.95083,-0.018 4.90499,3.08912 4.90499,5.15901 0,1.85751 -3.1393,4.83162 -5.07874,4.81151 -0.78169,-0.008 -0.29626,-0.5839 1.07874,-1.27953 z m 53.27236,-3.70573 c 0,-2.475 0.19502,-3.4875 0.43337,-2.25 0.23836,1.2375 0.23836,3.2625 0,4.5 -0.23835,1.2375 -0.43337,0.225 -0.43337,-2.25 z M 141.44224,212.76566 c 0,-0.21724 1.76215,-0.56302 3.91588,-0.76841 2.15374,-0.20539 3.70218,-0.0277 3.44099,0.39497 -0.47525,0.76897 -7.35687,1.11828 -7.35687,0.37344 z m 100.25,-60.68514 c 0.9625,-0.5606 1.81128,-2.23442 1.88618,-3.71959 0.12289,-2.43664 0.1792,-2.47524 0.57677,-0.39527 0.46591,2.4376 -1.19369,5.21557 -3.08539,5.16455 -0.62016,-0.0167 -0.34006,-0.48908 0.62244,-1.04969 z m 27.75,-3.9199 c -1.925,-1.05389 -3.14015,-1.93503 -2.70034,-1.95808 1.0597,-0.0556 6.70034,2.87723 6.70034,3.48376 0,0.65451 -0.0585,0.63219 -4,-1.52568 z m -85.33333,-5.66667 c -0.90741,-0.9074 -0.84581,-5.10458 0.0833,-5.67882 0.4125,-0.25494 0.75,1.0685 0.75,2.94098 0,1.87248 -0.0375,3.40451 -0.0833,3.40451 -0.0458,0 -0.38334,-0.3 -0.75,-0.66667 z"
         id="path4998"
         sodipodi:nodetypes="sssssssssssssssssssssssssssssssssssssssssssssssssssssssssscsssssscssssssssssssssscsssssss" />
      <path
         style="fill:#232629"
         d="m 222.60107,429.27995 c -1.36301,-0.8639 -2.24602,-5.2715 -6.23435,-31.11933 -1.23054,-7.975 -3.62946,-23.0149 -5.33092,-33.422 l -3.09356,-18.922 -9,-2.20787 c -14.84953,-3.64288 -27.87896,-9.71118 -39.39204,-18.34638 -2.96563,-2.22431 -5.89063,-3.7437 -6.5,-3.37641 -0.60938,0.36729 -6.91372,4.85435 -14.00965,9.97123 -7.09593,5.11689 -13.41843,9.30343 -14.05,9.30343 -1.47961,0 -3.54831,-2.0687 -3.54831,-3.54831 0,-0.63157 4.18654,-6.95407 9.30343,-14.05 5.11688,-7.09593 9.60394,-13.40027 9.97123,-14.00965 0.36729,-0.60937 -1.1521,-3.53437 -3.37641,-6.5 -8.62726,-11.50249 -14.69282,-24.52034 -18.35441,-39.39204 l -2.21591,-9 -9.41396,-1.58632 c -5.17769,-0.87247 -14.588974,-2.36573 -20.913974,-3.31835 -6.325,-0.95262 -15.1,-2.33709 -19.5,-3.07659 -4.4,-0.73951 -13.347529,-2.15092 -19.883397,-3.13647 -10.835217,-1.63386 -14.616603,-3.02628 -14.616603,-5.38227 0,-2.35835 3.783374,-3.74726 14.616603,-5.36589 6.535868,-0.97655 14.133397,-2.16812 16.883397,-2.64793 2.75,-0.47982 11.3,-1.83815 19,-3.01853 7.7,-1.18038 18.461254,-2.89348 23.913914,-3.8069 l 9.91391,-1.66075 2.22831,-9 c 3.68553,-14.88564 9.7296,-27.85728 18.35452,-39.39204 2.21749,-2.96563 3.7313,-5.89063 3.36401,-6.5 -0.36729,-0.60938 -4.85435,-6.91372 -9.97123,-14.00965 -5.11689,-7.09593 -9.30343,-13.41843 -9.30343,-14.05 0,-1.47961 2.0687,-3.54831 3.54831,-3.54831 0.63157,0 6.95407,4.18654 14.05,9.30343 7.09593,5.11688 13.40088,9.60431 14.01101,9.97207 0.61012,0.36775 2.86012,-0.65627 5,-2.27561 4.71478,-3.56788 7.98311,-3.85938 8.95455,-0.79864 0.55728,1.75583 -0.0605,2.83861 -3.05329,5.35119 l -3.75195,3.14995 4.6675,3.35195 c 3.74281,2.68787 4.60871,3.85652 4.37069,5.8988 -0.50945,4.37131 -3.95004,3.74811 -12.01214,-2.17576 -4.00658,-2.94396 -8.84755,-6.45032 -10.75772,-7.79192 l -3.47304,-2.43928 4.47304,6.23115 c 12.58233,17.52778 13.01856,18.26909 11.93834,20.2875 -1.81626,3.39373 -4.66465,2.24757 -9.13767,-3.67691 l -4.23716,-5.61208 -2.16833,2.71934 c -9.26773,11.62284 -19.34863,35.89706 -19.40736,46.73177 -0.009,1.72474 -0.84169,3.25477 -2.26478,4.16314 -1.2375,0.78991 -14.7375,3.37411 -30.000004,5.74267 -15.2625,2.36856 -27.75,4.55328 -27.75,4.85494 0,0.30166 15.1875,2.9316 33.75,5.8443 19.993174,3.13719 34.301414,5.83573 35.102784,6.6204 0.81162,0.79471 1.08469,2.16926 0.68261,3.43609 -0.54647,1.72177 -1.47196,2.11151 -5.01409,2.11151 h -4.34392 l 1.42792,6.12097 c 2.72545,11.68297 8.70055,24.64876 16.18904,35.12975 1.86687,2.6129 3.69421,4.56538 4.06075,4.33884 0.36654,-0.22654 2.4616,-2.91716 4.65568,-5.97916 3.09713,-4.32228 4.58028,-5.57209 6.63224,-5.58883 1.57648,-0.0129 2.90546,0.66235 3.29338,1.67327 0.64227,1.67372 -1.85236,5.69406 -13.21199,21.29242 l -4.7244,6.48726 3.5,-2.44963 c 1.925,-1.34729 6.73855,-4.82906 10.69677,-7.73726 7.61142,-5.59228 9.32205,-6.17481 11.2634,-3.83562 1.17022,1.41003 0.59688,5.52073 -0.77756,5.57489 -0.37543,0.0148 -2.19847,1.28425 -4.05118,2.82101 l -3.36857,2.79411 4.86857,3.47898 c 10.62329,7.59117 23.51252,13.53609 35.31949,16.29047 l 6.19286,1.4447 -0.67851,-6.33584 c -0.60695,-5.66769 -0.47092,-6.44694 1.28997,-7.38934 4.48964,-2.40278 4.98881,-0.69669 11.01061,37.63219 3.13121,19.93025 5.95117,36.23682 6.26657,36.23682 0.3154,0 3.02464,-15.85876 6.02052,-35.24169 5.81827,-37.64334 6.54334,-40.11511 11.05858,-37.69863 1.85914,0.99499 1.9978,1.69041 1.38674,6.95531 l -0.67894,5.84978 6.21131,-1.449 c 11.80928,-2.75491 24.70873,-8.69954 35.30099,-16.26823 l 4.83161,-3.45242 -4.19938,-3.61677 c -4.65121,-4.00591 -5.13535,-7.33743 -1.14877,-7.90509 2.02012,-0.28765 7.66424,3.24722 21.14585,13.2435 1.59284,1.18105 -0.5397,-2.04323 -8.6733,-13.11353 -5.59228,-7.61142 -6.17481,-9.32205 -3.83562,-11.2634 1.41003,-1.17022 5.52073,-0.59688 5.57489,0.77756 0.0148,0.37543 1.31531,2.23652 2.89003,4.13574 l 2.86312,3.45313 5.73885,-8.80417 c 6.27872,-9.63242 11.5808,-21.64335 13.85209,-31.37948 l 1.45875,-6.25311 -6.66487,0.26525 c -6.60188,0.26274 -6.66786,0.23926 -6.98125,-2.48426 -0.24434,-2.12352 0.21101,-2.93879 2,-3.58085 1.27401,-0.45724 17.95388,-3.24892 37.06638,-6.20373 19.1125,-2.95482 34.75,-5.63289 34.75,-5.95127 0,-0.31838 -15.85786,-3.03942 -35.23968,-6.04676 -37.63658,-5.83979 -40.11499,-6.56814 -37.70064,-11.0794 0.99499,-1.85914 1.69041,-1.9978 6.95531,-1.38674 l 5.84978,0.67894 -1.45119,-6.22073 c -1.74708,-7.48906 -6.55899,-19.78389 -10.16011,-25.95995 -2.68492,-4.60474 -9.2127,-14 -9.72713,-14 -0.15733,0 -2.17488,2.50174 -4.48346,5.55943 -3.16595,4.19327 -4.73132,5.48339 -6.37014,5.25 -4.17123,-0.59404 -3.22853,-4.69353 3.06367,-13.32281 3.20298,-4.39264 6.92901,-9.55554 8.28008,-11.47311 l 2.45649,-3.48649 -3.48649,2.45649 c -1.91757,1.35107 -7.07784,5.07518 -11.46727,8.2758 -8.68758,6.33469 -11.8154,6.99859 -12.32357,2.61576 -0.24958,-2.15247 0.60538,-3.29275 4.75,-6.33517 2.77989,-2.04063 5.05435,-3.8547 5.05435,-4.03126 0,-0.64123 -9.6351,-7.1842 -15,-10.18615 -7.16868,-4.01126 -17.20684,-7.92739 -24.95092,-9.73396 l -6.19286,-1.4447 0.67851,6.33584 c 0.6292,5.87538 0.51693,6.42232 -1.54478,7.52571 -1.78387,0.9547 -2.50757,0.90557 -3.66172,-0.24858 -0.94125,-0.94125 -3.3927,-13.93663 -7.09243,-37.59762 -3.1097,-19.887545 -5.90669,-36.159178 -6.21553,-36.159178 -0.30885,0 -3.15907,16.53431 -6.33382,36.742908 -3.17475,20.2086 -6.15106,37.1217 -6.61403,37.58467 -0.46296,0.46296 -1.90615,0.69115 -3.20708,0.50708 -2.263,-0.32018 -2.35463,-0.64427 -2.11777,-7.4904 0.28389,-8.20579 1.45307,-7.78405 -11.44073,-4.1269 -8.14917,2.3114 -10.30684,1.95327 -10.30684,-1.71073 0,-3.01494 1.44237,-3.70486 14.5,-6.93574 l 9,-2.22689 3.09356,-18.922 c 1.70146,-10.4071 4.10038,-25.446998 5.33092,-33.421998 3.98833,-25.847831 4.87134,-30.25543 6.23435,-31.119326 3.71581,-2.355126 5.23171,0.527478 7.22344,13.735929 0.98555,6.535868 2.39696,15.483397 3.13647,19.883397 0.7395,4.4 2.12397,13.175 3.07659,19.499998 0.95262,6.325 2.44588,15.73628 3.31835,20.91397 l 1.58632,9.41396 9,2.21591 c 14.8717,3.66159 27.88955,9.72715 39.39204,18.35441 2.96563,2.22431 5.89063,3.7437 6.5,3.37641 0.60938,-0.36729 6.91372,-4.85435 14.00965,-9.97123 7.09593,-5.11689 13.41843,-9.30343 14.05,-9.30343 1.47961,0 3.54831,2.0687 3.54831,3.54831 0,0.63157 -4.18654,6.95407 -9.30343,14.05 -5.11688,7.09593 -9.60394,13.40027 -9.97123,14.00965 -0.36729,0.60937 1.1521,3.53437 3.37641,6.5 8.62726,11.50249 14.69282,24.52034 18.35441,39.39204 l 2.21591,9 9.41396,1.58632 c 5.17769,0.87247 14.58897,2.36573 20.91397,3.31835 6.325,0.95262 15.1,2.33709 19.5,3.07659 4.4,0.73951 13.34753,2.15092 19.8834,3.13647 10.83521,1.63386 14.6166,3.02628 14.6166,5.38227 0,2.35599 -3.78139,3.74841 -14.6166,5.38227 -6.53587,0.98555 -15.4834,2.39696 -19.8834,3.13647 -4.4,0.7395 -13.175,2.12397 -19.5,3.07659 -6.325,0.95262 -15.73628,2.44588 -20.91397,3.31835 l -9.41396,1.58632 -2.21591,9 c -3.66159,14.8717 -9.72715,27.88955 -18.35441,39.39204 -2.22431,2.96563 -3.74092,5.89063 -3.37022,6.5 0.37069,0.60938 4.85774,6.8983 9.97122,13.97538 5.11349,7.07708 9.29725,13.39958 9.29725,14.05 0,1.50858 -2.05416,3.58258 -3.54831,3.58258 -0.63157,0 -6.95407,-4.18654 -14.05,-9.30343 -7.09593,-5.11688 -13.40027,-9.60394 -14.00965,-9.97123 -0.60937,-0.36729 -3.53437,1.1521 -6.5,3.37641 -11.50249,8.62726 -24.52034,14.69282 -39.39204,18.35441 l -9,2.21591 -1.58632,9.41396 c -0.87247,5.17769 -2.36573,14.58897 -3.31835,20.91397 -0.95262,6.325 -2.33709,15.1 -3.07659,19.5 -0.73951,4.4 -2.15092,13.34753 -3.13647,19.8834 -1.99173,13.20845 -3.50763,16.09105 -7.22344,13.73593 z m -8.15883,-111.76973 c -19.52535,-2.59793 -46.09821,-17.92407 -48.64064,-28.05393 -0.91218,-3.63442 1.55924,-10.18431 4.72722,-12.52832 1.42261,-1.0526 4.34761,-2.14983 6.5,-2.43827 3.35074,-0.44905 4.63233,-0.004 8.91342,3.09203 9.88363,7.1488 13.98747,9.61758 19.27713,11.59669 35.68628,13.35195 73.58366,-12.92346 73.58366,-51.0178 0,-14.90707 -5.38434,-27.91244 -15.91635,-38.44444 -10.62856,-10.62857 -23.51091,-15.90151 -38.41454,-15.72366 -13.61902,0.16253 -23.02415,3.32393 -33.56515,11.28246 -7.69098,5.80675 -16.45376,17.64417 -13.76493,18.5947 5.62561,1.98872 9.40697,9.67725 7.4792,15.20725 -1.51915,4.35784 -17.0883,24.53081 -20.5305,26.6014 -3.54516,2.13252 -10.01254,2.12902 -13.2728,-0.007 -1.35362,-0.88692 -6.5403,-7.0818 -11.52597,-13.7664 -8.98895,-12.05207 -9.06091,-12.19474 -8.59516,-17.04187 0.68599,-7.1393 4.65983,-10.86475 12.26155,-11.49515 l 5.65363,-0.46884 3.34086,-7.33102 c 10.21833,-22.42284 28.66682,-37.92717 53.48937,-44.95327 10.40279,-2.94454 28.96821,-2.52799 40.30747,0.90438 24.05251,7.28066 41.19174,22.01427 51.14541,43.96681 5.5945,12.3385 6.96859,18.78143 6.96859,32.67465 0,13.89322 -1.37409,20.33615 -6.96859,32.67465 -12.5719,27.72696 -39.16277,45.63796 -69.45288,46.78187 -5.225,0.19732 -11.075,0.14921 -13,-0.10692 z m 25.47131,-8.86104 c 12.52924,-2.65403 26.10929,-10.1644 35.67441,-19.72952 27.81037,-27.81037 27.81037,-73.70771 0,-101.51808 -14.89893,-14.89893 -33.22874,-21.91844 -54.64572,-20.92688 -19.29781,0.89343 -32.87067,6.98306 -47.10489,21.13419 -7.97334,7.92678 -9.69657,10.29453 -13.86571,19.05173 -2.61845,5.5 -5.09311,10.675 -5.49924,11.5 -0.49881,1.01326 -2.94293,1.69209 -7.53215,2.09197 -6.68237,0.58227 -9.49801,2.1969 -9.49801,5.44666 0,1.23523 11.5867,17.12783 15.82895,21.71137 4.45934,4.8181 6.16297,3.90134 15.60908,-8.39952 10.63974,-13.85523 11.00914,-16.74704 2.34607,-18.36589 -5.3287,-0.99576 -5.6648,-3.32836 -1.63312,-11.33426 4.19413,-8.3285 16.08748,-20.60487 24.12049,-24.89727 13.97285,-7.46632 29.41408,-9.90407 43.59362,-6.88225 22.90591,4.88151 42.21461,23.80518 47.57794,46.62919 3.24501,13.80938 1.05527,30.58361 -5.65429,43.31395 -4.85745,9.21624 -17.4022,21.40122 -26.78951,26.02122 -21.93873,10.79721 -48.14069,8.07486 -66.54259,-6.91369 -7.15402,-5.82703 -12.45664,-5.74791 -12.45664,0.18585 0,5.60805 21.31813,18.91157 35,21.84165 8.6277,1.84768 22.8511,1.86557 31.47131,0.0396 z m -18.43613,-22.42282 c -0.56935,-1.06384 -1.03518,-2.8317 -1.03518,-3.92857 0,-2.01952 2.42752,-5.13717 4,-5.13717 1.78637,0 4,3.24929 4,5.87143 0,4.86873 -4.87268,7.10351 -6.96482,3.19431 z m -32.46375,-12.63717 c -2.04232,-2.04232 -1.98763,-2.62975 0.54459,-5.84894 1.51954,-1.93178 2.85851,-2.60404 4.75,-2.38486 3.85503,0.44673 4.17201,4.84355 0.55435,7.68921 -3.21919,2.53222 -3.80662,2.58691 -5.84894,0.54459 z m 64.81636,-0.94987 c -3.28021,-3.28021 -2.9135,-6.85984 0.74619,-7.28393 1.89149,-0.21918 3.23046,0.45308 4.75,2.38486 2.53222,3.21919 2.58691,3.80662 0.54459,5.84894 -2.14019,2.14019 -3.10195,1.98896 -6.04078,-0.94987 z m -48.18779,-16.6787 c -1.89774,-1.89774 -1.47707,-2.94198 3.03884,-7.54336 3.95148,-4.02627 4.23959,-4.69499 4.25,-9.8646 0.0103,-5.12437 0.29596,-5.80655 3.76116,-8.98225 3.69894,-3.38991 3.75,-3.53954 3.75,-10.98899 0,-8.33177 1.0819,-11.4208 4,-11.4208 2.94472,0 4,3.10393 4,11.76528 0,7.24678 0.19184,7.99943 2.33068,9.1441 3.09279,1.65521 5.66932,6.17621 5.66932,9.94786 0,7.70615 -5.97419,12.7797 -13.93772,11.83654 -4.55368,-0.53931 -4.96363,-0.37913 -8.62456,3.37 -3.97563,4.07141 -6.17274,4.8012 -8.23772,2.73622 z m 21.97126,-14.45499 c 1.00581,-0.91024 1.82874,-2.33731 1.82874,-3.17126 0,-1.94357 -2.9063,-5.17375 -4.65499,-5.17375 -1.56542,0 -5.34501,3.53562 -5.34501,5 0,1.38244 3.74147,5 5.17126,5 0.64419,0 1.99419,-0.74474 3,-1.65499 z m 35.40017,-0.91644 c -0.86429,-0.86428 -1.57143,-1.95714 -1.57143,-2.42857 0,-1.81908 3.27139,-4 6,-4 2.72861,0 6,2.18092 6,4 0,1.81908 -3.27139,4 -6,4 -1.57143,0 -3.56429,-0.70714 -4.42857,-1.57143 z m -73.45541,-32.0082 c -2.53222,-3.21919 -2.58691,-3.80662 -0.54459,-5.84894 2.04232,-2.04232 2.62975,-1.98763 5.84894,0.54459 1.93178,1.51954 2.60404,2.85851 2.38486,4.75 -0.44673,3.85503 -4.84355,4.17201 -7.68921,0.55435 z m 62.38427,1.5801 c -1.14948,-1.8599 0.39023,-5.88263 2.87468,-7.51051 4.53848,-2.97372 8.09556,1.05465 4.82169,5.46054 -2.01041,2.70555 -6.54477,3.91331 -7.69637,2.04997 z m -29.92886,-12.5719 c -2.8351,-2.83509 -1.25204,-9.42857 2.26375,-9.42857 2.54665,0 4.16482,1.99263 4.16482,5.12857 0,2.62214 -2.21363,5.87143 -4,5.87143 -0.47143,0 -1.56429,-0.70714 -2.42857,-1.57143 z m -49.73629,-48.16208 c -2.995,-0.68422 -3.16063,-3.58977 -0.3428,-6.01356 3.29339,-2.83285 7.14879,-2.95898 8.00482,-0.26188 0.34756,1.09508 0.34935,2.44828 0.004,3.00711 -1.00056,1.61893 -5.84504,3.68433 -7.666,3.26833 z"
         id="path4996"
         sodipodi:nodetypes="ssscsssssssssscssssssssscssssssssssscsssscssscscssssssscssssssscssssscsscssssssscsscssssssscsscsssssssscssssssscssssssscsssssssssssscssssssscsssssssscscssssssssscsssssssssscssssssssscsssssssssssscssssssssssssssssssssssssssssssssssssssssssssssssssssssssssssssssssssssssssssssssssssssscss" />
    </g>
  </g>
</svg>
